<svg width="13" height="11" viewBox="0 0 13 11" fill="none" xmlns="http://www.w3.org/2000/svg">
<path d="M12 0H1C0.734784 0 0.48043 0.105357 0.292893 0.292893C0.105357 0.48043 0 0.734784 0 1V10C0 10.2652 0.105357 10.5196 0.292893 10.7071C0.48043 10.8946 0.734784 11 1 11H12C12.2652 11 12.5196 10.8946 12.7071 10.7071C12.8946 10.5196 13 10.2652 13 10V1C13 0.734784 12.8946 0.48043 12.7071 0.292893C12.5196 0.105357 12.2652 0 12 0ZM1 7H2C2.13261 7 2.25979 6.94732 2.35355 6.85355C2.44732 6.75979 2.5 6.63261 2.5 6.5C2.5 6.36739 2.44732 6.24021 2.35355 6.14645C2.25979 6.05268 2.13261 6 2 6H1V5H2C2.13261 5 2.25979 4.94732 2.35355 4.85355C2.44732 4.75979 2.5 4.63261 2.5 4.5C2.5 4.36739 2.44732 4.24021 2.35355 4.14645C2.25979 4.05268 2.13261 4 2 4H1V3H2C2.13261 3 2.25979 2.94732 2.35355 2.85355C2.44732 2.75979 2.5 2.63261 2.5 2.5C2.5 2.36739 2.44732 2.24021 2.35355 2.14645C2.25979 2.05268 2.13261 2 2 2H1V1H3.5V10H1V7ZM12 10H4.5V1H12V10Z" fill="black"/>
</svg>
