<svg width="20" height="17" viewBox="0 0 20 17" fill="none" xmlns="http://www.w3.org/2000/svg">
<path d="M18 0H1.5C1.10218 0 0.720644 0.158035 0.43934 0.43934C0.158035 0.720644 0 1.10218 0 1.5V15C0 15.3978 0.158035 15.7794 0.43934 16.0607C0.720644 16.342 1.10218 16.5 1.5 16.5H18C18.3978 16.5 18.7794 16.342 19.0607 16.0607C19.342 15.7794 19.5 15.3978 19.5 15V1.5C19.5 1.10218 19.342 0.720644 19.0607 0.43934C18.7794 0.158035 18.3978 0 18 0ZM18 1.5V3H1.5V1.5H18ZM18 15H1.5V4.5H18V15ZM14.25 6.75C14.25 7.94347 13.7759 9.08807 12.932 9.93198C12.0881 10.7759 10.9435 11.25 9.75 11.25C8.55653 11.25 7.41193 10.7759 6.56802 9.93198C5.72411 9.08807 5.25 7.94347 5.25 6.75C5.25 6.55109 5.32902 6.36032 5.46967 6.21967C5.61032 6.07902 5.80109 6 6 6C6.19891 6 6.38968 6.07902 6.53033 6.21967C6.67098 6.36032 6.75 6.55109 6.75 6.75C6.75 7.54565 7.06607 8.30871 7.62868 8.87132C8.19129 9.43393 8.95435 9.75 9.75 9.75C10.5456 9.75 11.3087 9.43393 11.8713 8.87132C12.4339 8.30871 12.75 7.54565 12.75 6.75C12.75 6.55109 12.829 6.36032 12.9697 6.21967C13.1103 6.07902 13.3011 6 13.5 6C13.6989 6 13.8897 6.07902 14.0303 6.21967C14.171 6.36032 14.25 6.55109 14.25 6.75Z" fill="black"/>
</svg>
