<svg width="20" height="16" viewBox="0 0 20 16" fill="none" xmlns="http://www.w3.org/2000/svg">
<path d="M18 2.25H10.0003L7.39969 0.3C7.13967 0.105989 6.82411 0.000804693 6.49969 0H1.5C1.10218 0 0.720644 0.158035 0.43934 0.43934C0.158035 0.720644 0 1.10218 0 1.5V14.25C0 14.6478 0.158035 15.0294 0.43934 15.3107C0.720644 15.592 1.10218 15.75 1.5 15.75H18C18.3978 15.75 18.7794 15.592 19.0607 15.3107C19.342 15.0294 19.5 14.6478 19.5 14.25V3.75C19.5 3.35218 19.342 2.97064 19.0607 2.68934C18.7794 2.40804 18.3978 2.25 18 2.25ZM1.5 1.5H6.49969L8.50031 3L6.49969 4.5H1.5V1.5ZM18 14.25H1.5V6H6.49969C6.82411 5.9992 7.13967 5.89401 7.39969 5.7L10.0003 3.75H18V14.25Z" fill="black"/>
</svg>
