<svg width="21" height="20" viewBox="0 0 21 20" fill="none" xmlns="http://www.w3.org/2000/svg">
<path d="M14.3972 4.55403C13.7184 2.96493 12.5118 1.65895 10.9812 0.856881C9.45064 0.0548148 7.69006 -0.194131 5.99712 0.15213C4.30418 0.498391 2.78274 1.41862 1.69001 2.75723C0.597275 4.09585 0.000297982 5.77073 0 7.49872V13.6862C0 14.0343 0.138281 14.3682 0.384422 14.6143C0.630564 14.8604 0.964403 14.9987 1.3125 14.9987H6.62531C7.21058 16.3353 8.17231 17.4725 9.3931 18.2716C10.6139 19.0707 12.0409 19.4971 13.5 19.4987H19.6875C20.0356 19.4987 20.3694 19.3604 20.6156 19.1143C20.8617 18.8682 21 18.5343 21 18.1862V11.9987C20.9996 10.1652 20.3277 8.39535 19.1111 7.02363C17.8945 5.65191 16.2175 4.77336 14.3972 4.55403ZM1.5 7.49872C1.5 6.31203 1.85189 5.15199 2.51118 4.1653C3.17047 3.1786 4.10754 2.40957 5.2039 1.95544C6.30026 1.50131 7.50666 1.38249 8.67054 1.61401C9.83443 1.84552 10.9035 2.41696 11.7426 3.25608C12.5818 4.09519 13.1532 5.16429 13.3847 6.32818C13.6162 7.49206 13.4974 8.69846 13.0433 9.79482C12.5892 10.8912 11.8201 11.8282 10.8334 12.4875C9.84673 13.1468 8.68669 13.4987 7.5 13.4987H1.5V7.49872ZM19.5 17.9987H13.5C12.439 17.9975 11.3973 17.7156 10.4805 17.1816C9.56371 16.6477 8.80452 15.8806 8.28 14.9584C9.30723 14.8518 10.3013 14.534 11.1999 14.025C12.0985 13.516 12.8822 12.8267 13.5018 12.0004C14.1213 11.1742 14.5634 10.2288 14.8003 9.22354C15.0371 8.21832 15.0636 7.17498 14.8781 6.15903C16.1937 6.4695 17.3659 7.21509 18.2048 8.275C19.0436 9.3349 19.5 10.647 19.5 11.9987V17.9987Z" fill="black"/>
</svg>
