<svg width="119" height="32" viewBox="0 0 119 32" fill="none" xmlns="http://www.w3.org/2000/svg">
<path d="M27.2 11.2C29.851 11.2 32 13.349 32 16C32 18.651 29.851 20.8 27.2 20.8L4.8 20.8C2.14903 20.8 -1.15877e-07 18.651 0 16C1.15877e-07 13.349 2.14903 11.2 4.8 11.2L27.2 11.2Z" fill="#007AFF"/>
<path d="M11.2 4.8C11.2 2.14903 13.349 0 16 0C18.6509 0 20.8 2.14903 20.8 4.8V27.2C20.8 29.851 18.6509 32 16 32C13.349 32 11.2 29.851 11.2 27.2V4.8Z" fill="#007AFF"/>
<path d="M11.2 4.8C11.2 2.14903 13.349 0 16 0C18.6509 0 20.8 2.14903 20.8 4.8V27.2C20.8 29.851 18.6509 32 16 32C13.349 32 11.2 29.851 11.2 27.2V4.8Z" fill="white" fill-opacity="0.4" style="mix-blend-mode:screen"/>
<path d="M27.3146 20.526C29.1892 22.4006 29.1892 25.4399 27.3146 27.3145C25.44 29.1891 22.4007 29.1891 20.5261 27.3145L4.68645 11.4748C2.81187 9.6002 2.81187 6.56091 4.68645 4.68634C6.56103 2.81176 9.60032 2.81176 11.4749 4.68634L27.3146 20.526Z" fill="#007AFF"/>
<path d="M27.3146 20.526C29.1892 22.4006 29.1892 25.4399 27.3146 27.3145C25.44 29.1891 22.4007 29.1891 20.5261 27.3145L4.68645 11.4748C2.81187 9.6002 2.81187 6.56091 4.68645 4.68634C6.56103 2.81176 9.60032 2.81176 11.4749 4.68634L27.3146 20.526Z" fill="white" fill-opacity="0.2" style="mix-blend-mode:soft-light"/>
<path d="M20.5261 4.68634C22.4007 2.81176 25.44 2.81176 27.3146 4.68634C29.1892 6.56091 29.1892 9.6002 27.3146 11.4748L11.4749 27.3145C9.60031 29.1891 6.56103 29.189 4.68645 27.3145C2.81187 25.4399 2.81187 22.4006 4.68645 20.526L20.5261 4.68634Z" fill="#007AFF"/>
<path d="M20.5261 4.68634C22.4007 2.81176 25.44 2.81176 27.3146 4.68634C29.1892 6.56091 29.1892 9.6002 27.3146 11.4748L11.4749 27.3145C9.60031 29.1891 6.56103 29.189 4.68645 27.3145C2.81187 25.4399 2.81187 22.4006 4.68645 20.526L20.5261 4.68634Z" fill="white" fill-opacity="0.3" style="mix-blend-mode:overlay"/>
<path fill-rule="evenodd" clip-rule="evenodd" d="M16.0001 4.8C15.6466 4.8 15.3601 5.08654 15.3601 5.44V13.8369C15.3601 14.0307 15.3601 14.1277 15.3217 14.1725C15.2885 14.2115 15.2386 14.2322 15.1875 14.2281C15.1287 14.2235 15.0601 14.155 14.923 14.0179L8.98556 8.08041C8.73562 7.83047 8.33039 7.83047 8.08046 8.08041C7.83052 8.33034 7.83052 8.73557 8.08046 8.9855L14.0179 14.923C14.155 15.0601 14.2236 15.1286 14.2282 15.1874C14.2322 15.2385 14.2115 15.2884 14.1726 15.3217C14.1277 15.36 14.0308 15.36 13.8369 15.36H5.44005C5.08659 15.36 4.80005 15.6465 4.80005 16C4.80005 16.3535 5.08659 16.64 5.44005 16.64H13.8369C14.0308 16.64 14.1277 16.64 14.1726 16.6783C14.2115 16.7116 14.2322 16.7615 14.2282 16.8126C14.2236 16.8714 14.155 16.9399 14.0179 17.077L8.08046 23.0145C7.83052 23.2644 7.83052 23.6697 8.08046 23.9196C8.33039 24.1695 8.73562 24.1695 8.98555 23.9196L14.923 17.9821C15.0601 17.845 15.1287 17.7765 15.1875 17.7719C15.2386 17.7678 15.2885 17.7885 15.3217 17.8275C15.3601 17.8723 15.3601 17.9693 15.3601 18.1631V26.56C15.3601 26.9135 15.6466 27.2 16.0001 27.2C16.3535 27.2 16.6401 26.9135 16.6401 26.56V18.1631C16.6401 17.9693 16.6401 17.8723 16.6784 17.8275C16.7116 17.7885 16.7615 17.7678 16.8126 17.7719C16.8714 17.7765 16.94 17.845 17.0771 17.9821L23.0146 23.9196C23.2645 24.1695 23.6697 24.1695 23.9197 23.9196C24.1696 23.6697 24.1696 23.2644 23.9197 23.0145L17.9822 17.077C17.8451 16.9399 17.7765 16.8714 17.7719 16.8126C17.7679 16.7615 17.7886 16.7116 17.8275 16.6783C17.8724 16.64 17.9693 16.64 18.1632 16.64H26.5601C26.9135 16.64 27.2001 16.3535 27.2001 16C27.2001 15.6465 26.9135 15.36 26.5601 15.36H18.1632C17.9693 15.36 17.8724 15.36 17.8275 15.3217C17.7886 15.2884 17.7679 15.2385 17.7719 15.1874C17.7766 15.1286 17.8451 15.0601 17.9822 14.923L23.9197 8.9855C24.1696 8.73557 24.1696 8.33034 23.9197 8.08041C23.6697 7.83047 23.2645 7.83047 23.0146 8.08041L17.0771 14.0179C16.94 14.155 16.8714 14.2235 16.8126 14.2281C16.7615 14.2322 16.7116 14.2115 16.6784 14.1725C16.6401 14.1277 16.6401 14.0307 16.6401 13.8369V5.44C16.6401 5.08654 16.3535 4.8 16.0001 4.8Z" fill="white"/>
<path d="M104.352 17.1667L104.352 9H102.099V17.1667C102.099 20.3883 104.621 23 107.732 23C110.844 23 113.366 20.3883 113.366 17.1667L113.366 9H111.113L111.113 17.1667C111.113 19.0997 109.599 20.6667 107.732 20.6667C105.866 20.6667 104.352 19.0997 104.352 17.1667Z" fill="#4F507F"/>
<path d="M104.352 17.1667L104.352 9H102.099V17.1667C102.099 20.3883 104.621 23 107.732 23C110.844 23 113.366 20.3883 113.366 17.1667L113.366 9H111.113L111.113 17.1667C111.113 19.0997 109.599 20.6667 107.732 20.6667C105.866 20.6667 104.352 19.0997 104.352 17.1667Z" fill="white" fill-opacity="0.2"/>
<path d="M104.352 17.1667L104.352 9H102.099V17.1667C102.099 20.3883 104.621 23 107.732 23C110.844 23 113.366 20.3883 113.366 17.1667L113.366 9H111.113L111.113 17.1667C111.113 19.0997 109.599 20.6667 107.732 20.6667C105.866 20.6667 104.352 19.0997 104.352 17.1667Z" fill="white" fill-opacity="0.1" style="mix-blend-mode:plus-lighter"/>
<path d="M116.747 9V23H119V9H116.747Z" fill="#4F507F"/>
<path d="M116.747 9V23H119V9H116.747Z" fill="white" fill-opacity="0.2"/>
<path d="M116.747 9V23H119V9H116.747Z" fill="white" fill-opacity="0.1" style="mix-blend-mode:plus-lighter"/>
<path d="M47.734 21.9472C46.7961 22.6585 45.5359 23 43.9532 23C42.986 23 42.1067 22.8577 41.3154 22.6016C40.5241 22.3455 39.7327 22.0041 39 21.5488L39.9086 19.5285C40.6413 20.0122 41.3154 20.3252 41.9602 20.5244C42.605 20.7236 43.2498 20.8374 43.8653 20.8374C44.7738 20.8374 45.4479 20.6951 45.9462 20.3821C46.4151 20.0691 46.6496 19.6423 46.6496 19.0732C46.6496 18.4472 46.3858 17.9634 45.829 17.6504C45.2721 17.3374 44.5687 17.0244 43.7187 16.7114C42.4584 16.2561 41.4619 15.7439 40.7292 15.1748C39.9672 14.6057 39.5862 13.7805 39.5569 12.6992C39.5276 11.5325 39.9672 10.622 40.8758 9.96748C41.7843 9.31301 42.9567 9 44.4221 9C45.1548 9 45.8583 9.08537 46.5617 9.28455C47.2651 9.48374 47.9392 9.76829 48.5547 10.1667L47.6461 12.1016C47.0892 11.7886 46.5617 11.561 46.0634 11.3902C45.5359 11.2195 44.979 11.1341 44.4221 11.1341C43.6894 11.1341 43.1032 11.248 42.6636 11.5041C42.224 11.7602 42.0188 12.1585 42.0188 12.6707C42.0188 13.2398 42.3119 13.6667 42.8688 13.9512C43.4256 14.2358 44.1583 14.5488 45.0083 14.8902C46.2686 15.3455 47.2651 15.8577 48.0271 16.4553C48.7598 17.0528 49.1408 17.878 49.1408 18.9878C49.1408 20.2683 48.6719 21.2358 47.734 21.9472Z" fill="#4F507F"/>
<path d="M61.5352 14.8333V23H63.7887V14.8333C63.7887 11.6117 61.2664 9 58.1549 9C55.0435 9 52.5211 11.6117 52.5211 14.8333V23H54.7746V14.8333C54.7746 12.9003 56.2881 11.3333 58.1549 11.3333C60.0218 11.3333 61.5352 12.9003 61.5352 14.8333Z" fill="#4F507F"/>
<path fill-rule="evenodd" clip-rule="evenodd" d="M80.6901 16C80.6901 19.866 77.6633 23 73.9296 23C70.1958 23 67.169 19.866 67.169 16C67.169 12.134 70.1958 9 73.9296 9C77.6633 9 80.6901 12.134 80.6901 16ZM78.4366 16C78.4366 18.5773 76.4187 20.6667 73.9296 20.6667C71.4404 20.6667 69.4225 18.5773 69.4225 16C69.4225 13.4227 71.4404 11.3333 73.9296 11.3333C76.4187 11.3333 78.4366 13.4227 78.4366 16Z" fill="#4F507F"/>
<path d="M82.9437 9L85.0675 21.0768C85.508 23.5819 88.7386 23.6631 89.2826 21.1827L90.5415 14.2988C90.5878 14.0459 90.9152 14.0511 90.9549 14.3053L92.0143 21.0805C92.4845 23.5817 95.72 23.6138 96.2312 21.1224L98.7183 9H96.5311L94.3426 20.6205C94.2956 20.8703 93.973 20.867 93.9301 20.6163L91.9423 9H89.7406L87.4127 20.6546C87.363 20.9036 87.0408 20.8963 87.0003 20.6453L85.1206 9H82.9437Z" fill="#4F507F"/>
</svg>
