<svg width="15" height="15" viewBox="0 0 15 15" fill="none" xmlns="http://www.w3.org/2000/svg">
<path d="M7 2V0.5C7 0.367392 7.05268 0.240215 7.14645 0.146447C7.24021 0.0526784 7.36739 0 7.5 0C7.63261 0 7.75979 0.0526784 7.85355 0.146447C7.94732 0.240215 8 0.367392 8 0.5V2C8 2.13261 7.94732 2.25979 7.85355 2.35355C7.75979 2.44732 7.63261 2.5 7.5 2.5C7.36739 2.5 7.24021 2.44732 7.14645 2.35355C7.05268 2.25979 7 2.13261 7 2ZM11.5 7.5C11.5 8.29113 11.2654 9.06448 10.8259 9.72228C10.3864 10.3801 9.76164 10.8928 9.03073 11.1955C8.29983 11.4983 7.49556 11.5775 6.71964 11.4231C5.94371 11.2688 5.23098 10.8878 4.67157 10.3284C4.11216 9.76902 3.7312 9.05628 3.57686 8.28036C3.42252 7.50444 3.50173 6.70017 3.80448 5.96927C4.10723 5.23836 4.61992 4.61365 5.27772 4.17412C5.93552 3.7346 6.70887 3.5 7.5 3.5C8.56051 3.50116 9.57725 3.92296 10.3271 4.67285C11.077 5.42275 11.4988 6.43949 11.5 7.5ZM10.5 7.5C10.5 6.90666 10.3241 6.32664 9.99441 5.83329C9.66476 5.33994 9.19623 4.95542 8.64805 4.72836C8.09987 4.5013 7.49667 4.44189 6.91473 4.55764C6.33279 4.6734 5.79824 4.95912 5.37868 5.37868C4.95912 5.79824 4.6734 6.33279 4.55764 6.91473C4.44189 7.49667 4.5013 8.09987 4.72836 8.64805C4.95542 9.19623 5.33994 9.66476 5.83329 9.99441C6.32664 10.3241 6.90666 10.5 7.5 10.5C8.2954 10.4992 9.05798 10.1828 9.62041 9.62041C10.1828 9.05798 10.4992 8.2954 10.5 7.5ZM3.14625 3.85375C3.24007 3.94757 3.36732 4.00028 3.5 4.00028C3.63268 4.00028 3.75993 3.94757 3.85375 3.85375C3.94757 3.75993 4.00028 3.63268 4.00028 3.5C4.00028 3.36732 3.94757 3.24007 3.85375 3.14625L2.85375 2.14625C2.75993 2.05243 2.63268 1.99972 2.5 1.99972C2.36732 1.99972 2.24007 2.05243 2.14625 2.14625C2.05243 2.24007 1.99972 2.36732 1.99972 2.5C1.99972 2.63268 2.05243 2.75993 2.14625 2.85375L3.14625 3.85375ZM3.14625 11.1462L2.14625 12.1462C2.05243 12.2401 1.99972 12.3673 1.99972 12.5C1.99972 12.6327 2.05243 12.7599 2.14625 12.8538C2.24007 12.9476 2.36732 13.0003 2.5 13.0003C2.63268 13.0003 2.75993 12.9476 2.85375 12.8538L3.85375 11.8538C3.90021 11.8073 3.93706 11.7521 3.9622 11.6914C3.98734 11.6308 4.00028 11.5657 4.00028 11.5C4.00028 11.4343 3.98734 11.3692 3.9622 11.3086C3.93706 11.2479 3.90021 11.1927 3.85375 11.1462C3.8073 11.0998 3.75214 11.0629 3.69145 11.0378C3.63075 11.0127 3.5657 10.9997 3.5 10.9997C3.4343 10.9997 3.36925 11.0127 3.30855 11.0378C3.24786 11.0629 3.19271 11.0998 3.14625 11.1462ZM11.5 4C11.5657 4.00005 11.6307 3.98716 11.6914 3.96207C11.7521 3.93697 11.8073 3.90017 11.8538 3.85375L12.8538 2.85375C12.9476 2.75993 13.0003 2.63268 13.0003 2.5C13.0003 2.36732 12.9476 2.24007 12.8538 2.14625C12.7599 2.05243 12.6327 1.99972 12.5 1.99972C12.3673 1.99972 12.2401 2.05243 12.1462 2.14625L11.1462 3.14625C11.0762 3.21618 11.0286 3.3053 11.0092 3.40235C10.9899 3.49939 10.9998 3.59998 11.0377 3.6914C11.0756 3.78281 11.1397 3.86092 11.222 3.91586C11.3043 3.9708 11.4011 4.00008 11.5 4ZM11.8538 11.1462C11.7599 11.0524 11.6327 10.9997 11.5 10.9997C11.3673 10.9997 11.2401 11.0524 11.1462 11.1462C11.0524 11.2401 10.9997 11.3673 10.9997 11.5C10.9997 11.6327 11.0524 11.7599 11.1462 11.8538L12.1462 12.8538C12.1927 12.9002 12.2479 12.9371 12.3086 12.9622C12.3692 12.9873 12.4343 13.0003 12.5 13.0003C12.5657 13.0003 12.6308 12.9873 12.6914 12.9622C12.7521 12.9371 12.8073 12.9002 12.8538 12.8538C12.9002 12.8073 12.9371 12.7521 12.9622 12.6914C12.9873 12.6308 13.0003 12.5657 13.0003 12.5C13.0003 12.4343 12.9873 12.3692 12.9622 12.3086C12.9371 12.2479 12.9002 12.1927 12.8538 12.1462L11.8538 11.1462ZM2.5 7.5C2.5 7.36739 2.44732 7.24021 2.35355 7.14645C2.25979 7.05268 2.13261 7 2 7H0.5C0.367392 7 0.240215 7.05268 0.146447 7.14645C0.0526784 7.24021 0 7.36739 0 7.5C0 7.63261 0.0526784 7.75979 0.146447 7.85355C0.240215 7.94732 0.367392 8 0.5 8H2C2.13261 8 2.25979 7.94732 2.35355 7.85355C2.44732 7.75979 2.5 7.63261 2.5 7.5ZM7.5 12.5C7.36739 12.5 7.24021 12.5527 7.14645 12.6464C7.05268 12.7402 7 12.8674 7 13V14.5C7 14.6326 7.05268 14.7598 7.14645 14.8536C7.24021 14.9473 7.36739 15 7.5 15C7.63261 15 7.75979 14.9473 7.85355 14.8536C7.94732 14.7598 8 14.6326 8 14.5V13C8 12.8674 7.94732 12.7402 7.85355 12.6464C7.75979 12.5527 7.63261 12.5 7.5 12.5ZM14.5 7H13C12.8674 7 12.7402 7.05268 12.6464 7.14645C12.5527 7.24021 12.5 7.36739 12.5 7.5C12.5 7.63261 12.5527 7.75979 12.6464 7.85355C12.7402 7.94732 12.8674 8 13 8H14.5C14.6326 8 14.7598 7.94732 14.8536 7.85355C14.9473 7.75979 15 7.63261 15 7.5C15 7.36739 14.9473 7.24021 14.8536 7.14645C14.7598 7.05268 14.6326 7 14.5 7Z" fill="black"/>
</svg>
